<?xml version="1.0" encoding="UTF-8"?>
<svg width="22px" height="23px" viewBox="0 0 22 23" version="1.1" xmlns="http://www.w3.org/2000/svg" xmlns:xlink="http://www.w3.org/1999/xlink">
    <!-- Generator: Sketch 57.1 (83088) - https://sketch.com -->
    <title>Combined Shape</title>
    <desc>Created with Sketch.</desc>
    <g id="Page-1" stroke="none" stroke-width="1" fill="none" fill-rule="evenodd">
        <g id="todo" fill="#000000" fill-rule="nonzero">
            <path d="M16.6269531,12.3085938 C19.5993437,12.3085938 22.0175781,14.7066582 22.0175781,17.6542969 C22.0175781,20.6019355 19.5993437,23 16.6269531,23 C13.6793145,23 11.28125,20.6019355 11.28125,17.6542969 C11.28125,14.7066582 13.6793145,12.3085938 16.6269531,12.3085938 Z M11.1954492,0 C12.093123,0 12.9690547,0.367146484 13.5985449,1.0072832 L13.5985449,1.0072832 L13.602498,1.01137109 L16.3365332,3.83870898 C16.9583418,4.47242187 17.3007812,5.31025977 17.3007812,6.19832031 L17.3007812,6.19832031 L17.3007812,10.9943145 C17.0790918,10.9723477 16.8543477,10.9609375 16.6269531,10.9609375 C12.9362168,10.9609375 9.93359375,13.9635605 9.93359375,17.6542969 C9.93359375,19.0921562 10.389416,20.4254375 11.1640039,21.5175781 L11.1640039,21.5175781 L2.52148437,21.5175781 C1.40683789,21.5175781 0.5,20.6107402 0.5,19.4960938 L0.5,19.4960938 L0.5,2.02148438 C0.5,0.906837891 1.40683789,0 2.52148437,0 L2.52148437,0 Z M18.1813398,16.0584922 C17.895502,15.8203613 17.4705859,15.8589492 17.2323203,16.1447871 L17.2323203,16.1447871 L16.0950332,17.5095586 L15.8370469,16.9935859 C15.6706113,16.6607148 15.2658203,16.5257246 14.9329941,16.69225 C14.600168,16.8586406 14.4652227,17.2634316 14.6316582,17.5962578 L14.6316582,17.5962578 L15.3504082,19.0337578 C15.4521113,19.2371641 15.649543,19.3755234 15.8754102,19.4017578 C15.9014199,19.4047676 15.9273398,19.40625 15.9531699,19.40625 C16.1517695,19.40625 16.3419238,19.3183828 16.4707598,19.1638066 L16.4707598,19.1638066 L18.2676348,17.0075566 C18.5059004,16.7216289 18.4672676,16.2967578 18.1813398,16.0584922 Z M7.64257812,13.7011719 L4.04882812,13.7011719 C3.67669531,13.7011719 3.375,14.0028672 3.375,14.375 C3.375,14.7471328 3.67669531,15.0488281 4.04882812,15.0488281 L4.04882812,15.0488281 L7.64257812,15.0488281 C8.01471094,15.0488281 8.31640625,14.7471328 8.31640625,14.375 C8.31640625,14.0028672 8.01471094,13.7011719 7.64257812,13.7011719 L7.64257812,13.7011719 Z M7.64257812,10.1074219 L4.04882812,10.1074219 C3.67669531,10.1074219 3.375,10.4091172 3.375,10.78125 C3.375,11.1533828 3.67669531,11.4550781 4.04882812,11.4550781 L4.04882812,11.4550781 L7.64257812,11.4550781 C8.01471094,11.4550781 8.31640625,11.1533828 8.31640625,10.78125 C8.31640625,10.4091172 8.01471094,10.1074219 7.64257812,10.1074219 L7.64257812,10.1074219 Z M11.9550781,10.1074219 L11.2363281,10.1074219 C10.8641953,10.1074219 10.5625,10.4091172 10.5625,10.78125 C10.5625,11.1533828 10.8641953,11.4550781 11.2363281,11.4550781 L11.2363281,11.4550781 L11.9550781,11.4550781 C12.3272109,11.4550781 12.6289062,11.1533828 12.6289062,10.78125 C12.6289062,10.4091172 12.3272109,10.1074219 11.9550781,10.1074219 L11.9550781,10.1074219 Z M7.64257812,6.51367188 L4.04882812,6.51367188 C3.67669531,6.51367188 3.375,6.81536719 3.375,7.1875 C3.375,7.55963281 3.67669531,7.86132812 4.04882812,7.86132812 L4.04882812,7.86132812 L7.64257812,7.86132812 C8.01471094,7.86132812 8.31640625,7.55963281 8.31640625,7.1875 C8.31640625,6.81536719 8.01471094,6.51367188 7.64257812,6.51367188 L7.64257812,6.51367188 Z M11.9550781,6.51367188 L11.2363281,6.51367188 C10.8641953,6.51367188 10.5625,6.81536719 10.5625,7.1875 C10.5625,7.55963281 10.8641953,7.86132812 11.2363281,7.86132812 L11.2363281,7.86132812 L11.9550781,7.86132812 C12.3272109,7.86132812 12.6289062,7.55963281 12.6289062,7.1875 C12.6289062,6.81536719 12.3272109,6.51367188 11.9550781,6.51367188 L11.9550781,6.51367188 Z" id="Combined-Shape"></path>
        </g>
    </g>
</svg>