<?xml version="1.0" encoding="UTF-8"?>
<svg width="23px" height="23px" viewBox="0 0 23 23" version="1.1" xmlns="http://www.w3.org/2000/svg" xmlns:xlink="http://www.w3.org/1999/xlink">
    <!-- Generator: Sketch 57.1 (83088) - https://sketch.com -->
    <title>Shape</title>
    <desc>Created with Sketch.</desc>
    <g id="Page-1" stroke="none" stroke-width="1" fill="none" fill-rule="evenodd">
        <g id="exam" fill="#000000" fill-rule="nonzero">
            <path d="M11.5,0 C5.15864565,0 0,5.15864565 0,11.5 C0,17.8413543 5.15864565,23 11.5,23 C17.8413543,23 23,17.8413543 23,11.5 C23,5.15864565 17.8413543,0 11.5,0 Z M16.9692383,17.4482879 C16.7823563,17.63517 16.5370407,17.7292252 16.2917252,17.7292252 C16.0464096,17.7292252 15.8009186,17.63517 15.6142121,17.4482879 L10.8224869,12.6567383 C10.6422729,12.4775772 10.5417252,12.2340164 10.5417252,11.9792252 L10.5417252,5.75 C10.5417252,5.22006226 10.9709396,4.79172517 11.5,4.79172517 C12.0290604,4.79172517 12.4582748,5.22006226 12.4582748,5.75 L12.4582748,11.5824738 L16.9692383,16.0932617 C17.3438797,16.4680786 17.3438797,17.0736466 16.9692383,17.4482879 L16.9692383,17.4482879 Z" id="Shape"></path>
        </g>
    </g>
</svg>